# Blender v2.80 (sub 75) OBJ File: ''
# www.blender.org
mtllib Coin.mtl
o Cylinder
v -0.500000 0.000000 -0.861689
v 0.500000 0.000000 -0.861689
v -0.500000 -0.168107 -0.845132
v 0.500000 -0.168107 -0.845132
v -0.500000 -0.329754 -0.796097
v 0.500000 -0.329754 -0.796097
v -0.500000 -0.478729 -0.716468
v 0.500000 -0.478729 -0.716468
v -0.500000 -0.609306 -0.609306
v 0.500000 -0.609306 -0.609306
v -0.500000 -0.716468 -0.478729
v 0.500000 -0.716468 -0.478729
v -0.500000 -0.796097 -0.329754
v 0.500000 -0.796097 -0.329754
v -0.500000 -0.845132 -0.168107
v 0.500000 -0.845132 -0.168107
v -0.500000 -0.861689 -0.000000
v 0.500000 -0.861689 -0.000000
v -0.500000 -0.845132 0.168107
v 0.500000 -0.845132 0.168107
v -0.500000 -0.796097 0.329754
v 0.500000 -0.796097 0.329754
v -0.500000 -0.716468 0.478729
v 0.500000 -0.716468 0.478729
v -0.500000 -0.609306 0.609306
v 0.500000 -0.609306 0.609306
v -0.500000 -0.478729 0.716469
v 0.500000 -0.478729 0.716469
v -0.500000 -0.329754 0.796097
v 0.500000 -0.329754 0.796097
v -0.500000 -0.168107 0.845132
v 0.500000 -0.168107 0.845132
v -0.500000 0.000000 0.861689
v 0.500000 0.000000 0.861689
v -0.500000 0.168108 0.845132
v 0.500000 0.168108 0.845132
v -0.500000 0.329755 0.796097
v 0.500000 0.329755 0.796097
v -0.500000 0.478729 0.716468
v 0.500000 0.478729 0.716468
v -0.500000 0.609307 0.609306
v 0.500000 0.609307 0.609306
v -0.500000 0.716469 0.478728
v 0.500000 0.716469 0.478728
v -0.500000 0.796097 0.329754
v 0.500000 0.796097 0.329754
v -0.500000 0.845132 0.168106
v 0.500000 0.845132 0.168106
v -0.500000 0.861689 -0.000001
v 0.500000 0.861689 -0.000001
v -0.500000 0.845132 -0.168108
v 0.500000 0.845132 -0.168108
v -0.500000 0.796097 -0.329755
v 0.500000 0.796097 -0.329755
v -0.500000 0.716468 -0.478730
v 0.500000 0.716468 -0.478730
v -0.500000 0.609306 -0.609307
v 0.500000 0.609306 -0.609307
v -0.500000 0.478728 -0.716469
v 0.500000 0.478728 -0.716469
v -0.500000 0.329753 -0.796098
v 0.500000 0.329753 -0.796098
v -0.500000 0.168106 -0.845132
v 0.500000 0.168106 -0.845132
v -0.500000 0.000000 -1.000000
v -0.500000 -0.195090 -0.980785
v 0.500000 -0.195090 -0.980785
v 0.500000 -0.000000 -1.000000
v -0.500000 -0.382683 -0.923880
v 0.500000 -0.382683 -0.923880
v -0.500000 -0.555570 -0.831470
v 0.500000 -0.555570 -0.831470
v -0.500000 -0.707107 -0.707107
v 0.500000 -0.707107 -0.707107
v -0.500000 -0.831470 -0.555570
v 0.500000 -0.831470 -0.555570
v -0.500000 -0.923880 -0.382683
v 0.500000 -0.923880 -0.382683
v -0.500000 -0.980785 -0.195090
v 0.500000 -0.980785 -0.195090
v -0.500000 -1.000000 -0.000000
v 0.500000 -1.000000 -0.000000
v -0.500000 -0.980785 0.195090
v 0.500000 -0.980785 0.195090
v -0.500000 -0.923880 0.382683
v 0.500000 -0.923880 0.382683
v -0.500000 -0.831470 0.555570
v 0.500000 -0.831470 0.555570
v -0.500000 -0.707107 0.707107
v 0.500000 -0.707107 0.707107
v -0.500000 -0.555570 0.831470
v 0.500000 -0.555570 0.831470
v -0.500000 -0.382683 0.923880
v 0.500000 -0.382683 0.923880
v -0.500000 -0.195090 0.980785
v 0.500000 -0.195090 0.980785
v -0.500000 0.000000 1.000000
v 0.500000 0.000000 1.000000
v -0.500000 0.195091 0.980785
v 0.500000 0.195091 0.980785
v -0.500000 0.382684 0.923879
v 0.500000 0.382684 0.923879
v -0.500000 0.555571 0.831469
v 0.500000 0.555571 0.831469
v -0.500000 0.707107 0.707106
v 0.500000 0.707107 0.707106
v -0.500000 0.831470 0.555570
v 0.500000 0.831470 0.555570
v -0.500000 0.923880 0.382683
v 0.500000 0.923880 0.382683
v -0.500000 0.980785 0.195089
v 0.500000 0.980785 0.195089
v -0.500000 1.000000 -0.000001
v 0.500000 1.000000 -0.000001
v -0.500000 0.980785 -0.195091
v 0.500000 0.980785 -0.195091
v -0.500000 0.923879 -0.382684
v 0.500000 0.923879 -0.382684
v -0.500000 0.831469 -0.555571
v 0.500000 0.831469 -0.555571
v -0.500000 0.707106 -0.707108
v 0.500000 0.707106 -0.707108
v -0.500000 0.555569 -0.831470
v 0.500000 0.555569 -0.831470
v -0.500000 0.382682 -0.923880
v 0.500000 0.382682 -0.923880
v -0.500000 0.195089 -0.980786
v 0.500000 0.195089 -0.980786
v 0.400000 -0.168107 -0.845132
v 0.400000 0.000000 -0.861689
v 0.400000 -0.329754 -0.796097
v 0.400000 -0.478729 -0.716468
v 0.400000 -0.609306 -0.609306
v 0.400000 -0.716468 -0.478729
v 0.400000 -0.796097 -0.329754
v 0.400000 -0.845132 -0.168107
v 0.400000 -0.861689 -0.000000
v 0.400000 -0.845132 0.168107
v 0.400000 -0.796097 0.329754
v 0.400000 -0.716468 0.478729
v 0.400000 -0.609306 0.609306
v 0.400000 -0.478729 0.716469
v 0.400000 -0.329754 0.796097
v 0.400000 -0.168107 0.845132
v 0.400000 0.000000 0.861689
v 0.400000 0.168108 0.845132
v 0.400000 0.329755 0.796097
v 0.400000 0.478729 0.716468
v 0.400000 0.609307 0.609306
v 0.400000 0.716469 0.478728
v 0.400000 0.796097 0.329754
v 0.400000 0.845132 0.168106
v 0.400000 0.861689 -0.000001
v 0.400000 0.845132 -0.168108
v 0.400000 0.796097 -0.329755
v 0.400000 0.716468 -0.478730
v 0.400000 0.609306 -0.609307
v 0.400000 0.478728 -0.716469
v 0.400000 0.329753 -0.796098
v 0.400000 0.168106 -0.845132
v -0.400000 0.000000 -0.861689
v -0.400000 -0.168107 -0.845132
v -0.400000 -0.329754 -0.796097
v -0.400000 -0.478729 -0.716468
v -0.400000 -0.609306 -0.609306
v -0.400000 -0.716468 -0.478729
v -0.400000 -0.796097 -0.329754
v -0.400000 -0.845132 -0.168107
v -0.400000 -0.861689 -0.000000
v -0.400000 -0.845132 0.168107
v -0.400000 -0.796097 0.329754
v -0.400000 -0.716468 0.478729
v -0.400000 -0.609306 0.609306
v -0.400000 -0.478729 0.716469
v -0.400000 -0.329754 0.796097
v -0.400000 -0.168107 0.845132
v -0.400000 0.000000 0.861689
v -0.400000 0.168108 0.845132
v -0.400000 0.329755 0.796097
v -0.400000 0.478729 0.716468
v -0.400000 0.609307 0.609306
v -0.400000 0.716469 0.478728
v -0.400000 0.796097 0.329754
v -0.400000 0.845132 0.168106
v -0.400000 0.861689 -0.000001
v -0.400000 0.845132 -0.168108
v -0.400000 0.796097 -0.329755
v -0.400000 0.716468 -0.478730
v -0.400000 0.609306 -0.609307
v -0.400000 0.478728 -0.716469
v -0.400000 0.329753 -0.796098
v -0.400000 0.168106 -0.845132
vt 1.000000 0.500000
vt 1.000000 1.000000
vt 0.968750 1.000000
vt 0.968750 0.500000
vt 0.937500 1.000000
vt 0.937500 0.500000
vt 0.906250 1.000000
vt 0.906250 0.500000
vt 0.875000 1.000000
vt 0.875000 0.500000
vt 0.843750 1.000000
vt 0.843750 0.500000
vt 0.812500 1.000000
vt 0.812500 0.500000
vt 0.781250 1.000000
vt 0.781250 0.500000
vt 0.750000 1.000000
vt 0.750000 0.500000
vt 0.718750 1.000000
vt 0.718750 0.500000
vt 0.687500 1.000000
vt 0.687500 0.500000
vt 0.656250 1.000000
vt 0.656250 0.500000
vt 0.625000 1.000000
vt 0.625000 0.500000
vt 0.593750 1.000000
vt 0.593750 0.500000
vt 0.562500 1.000000
vt 0.562500 0.500000
vt 0.531250 1.000000
vt 0.531250 0.500000
vt 0.500000 1.000000
vt 0.500000 0.500000
vt 0.468750 1.000000
vt 0.468750 0.500000
vt 0.437500 1.000000
vt 0.437500 0.500000
vt 0.406250 1.000000
vt 0.406250 0.500000
vt 0.375000 1.000000
vt 0.375000 0.500000
vt 0.343750 1.000000
vt 0.343750 0.500000
vt 0.312500 1.000000
vt 0.312500 0.500000
vt 0.281250 1.000000
vt 0.281250 0.500000
vt 0.250000 1.000000
vt 0.250000 0.500000
vt 0.218750 1.000000
vt 0.218750 0.500000
vt 0.187500 1.000000
vt 0.187500 0.500000
vt 0.156250 1.000000
vt 0.156250 0.500000
vt 0.125000 1.000000
vt 0.125000 0.500000
vt 0.093750 1.000000
vt 0.093750 0.500000
vt 0.062500 1.000000
vt 0.062500 0.500000
vt 0.047168 0.209655
vt 0.058937 0.170859
vt 0.058937 0.170859
vt 0.047168 0.209655
vt 0.031250 1.000000
vt 0.031250 0.500000
vt 0.000000 1.000000
vt 0.000000 0.500000
vt 0.750000 0.043195
vt 0.709654 0.047168
vt 0.709654 0.047168
vt 0.750000 0.043195
vt 0.790346 0.452832
vt 0.750000 0.456805
vt 0.750000 0.490000
vt 0.796822 0.485388
vt 0.250000 0.456805
vt 0.290346 0.452832
vt 0.296822 0.485388
vt 0.250000 0.490000
vt 0.829141 0.441063
vt 0.841844 0.471731
vt 0.329141 0.441063
vt 0.341844 0.471731
vt 0.864895 0.421952
vt 0.883337 0.449553
vt 0.364895 0.421952
vt 0.383337 0.449553
vt 0.896234 0.396234
vt 0.919706 0.419706
vt 0.396233 0.396234
vt 0.419706 0.419706
vt 0.921953 0.364895
vt 0.949553 0.383337
vt 0.421953 0.364895
vt 0.449553 0.383337
vt 0.941064 0.329141
vt 0.971731 0.341844
vt 0.441063 0.329141
vt 0.471731 0.341844
vt 0.952832 0.290346
vt 0.985388 0.296822
vt 0.452832 0.290346
vt 0.485388 0.296822
vt 0.956805 0.250000
vt 0.990000 0.250000
vt 0.456805 0.250000
vt 0.490000 0.250000
vt 0.952832 0.209654
vt 0.985388 0.203178
vt 0.452832 0.209654
vt 0.485388 0.203178
vt 0.941063 0.170859
vt 0.971731 0.158156
vt 0.441063 0.170859
vt 0.471731 0.158156
vt 0.921953 0.135105
vt 0.949553 0.116663
vt 0.421952 0.135105
vt 0.449553 0.116663
vt 0.896234 0.103766
vt 0.919706 0.080294
vt 0.396234 0.103766
vt 0.419706 0.080294
vt 0.864895 0.078047
vt 0.883337 0.050447
vt 0.364895 0.078047
vt 0.383337 0.050447
vt 0.829141 0.058937
vt 0.841844 0.028269
vt 0.329141 0.058937
vt 0.341844 0.028269
vt 0.790346 0.047168
vt 0.796822 0.014612
vt 0.290346 0.047168
vt 0.296822 0.014612
vt 0.750000 0.010000
vt 0.250000 0.043195
vt 0.250000 0.010000
vt 0.703178 0.014612
vt 0.209654 0.047168
vt 0.203178 0.014612
vt 0.670859 0.058937
vt 0.658156 0.028269
vt 0.170859 0.058937
vt 0.158156 0.028269
vt 0.635105 0.078048
vt 0.616663 0.050447
vt 0.135105 0.078048
vt 0.116663 0.050447
vt 0.603766 0.103766
vt 0.580294 0.080294
vt 0.103766 0.103766
vt 0.080294 0.080294
vt 0.578047 0.135105
vt 0.550447 0.116663
vt 0.078047 0.135105
vt 0.050447 0.116663
vt 0.558936 0.170859
vt 0.528269 0.158156
vt 0.028269 0.158156
vt 0.547168 0.209655
vt 0.514611 0.203179
vt 0.014611 0.203179
vt 0.543194 0.250000
vt 0.510000 0.250000
vt 0.043195 0.250000
vt 0.010000 0.250000
vt 0.547168 0.290346
vt 0.514612 0.296822
vt 0.047168 0.290346
vt 0.014612 0.296822
vt 0.558937 0.329141
vt 0.528269 0.341844
vt 0.058937 0.329141
vt 0.028269 0.341844
vt 0.578048 0.364895
vt 0.550447 0.383337
vt 0.078048 0.364895
vt 0.050447 0.383337
vt 0.603767 0.396234
vt 0.580295 0.419706
vt 0.103767 0.396234
vt 0.080295 0.419706
vt 0.635105 0.421953
vt 0.616663 0.449553
vt 0.135105 0.421952
vt 0.116663 0.449553
vt 0.670859 0.441063
vt 0.658156 0.471731
vt 0.170859 0.441063
vt 0.158156 0.471731
vt 0.709655 0.452832
vt 0.703179 0.485389
vt 0.209655 0.452832
vt 0.203179 0.485389
vt 0.290346 0.452832
vt 0.250000 0.456805
vt 0.209655 0.452832
vt 0.170859 0.441063
vt 0.135105 0.421952
vt 0.103767 0.396234
vt 0.078048 0.364895
vt 0.058937 0.329141
vt 0.047168 0.290346
vt 0.043195 0.250000
vt 0.078047 0.135105
vt 0.103766 0.103766
vt 0.135105 0.078048
vt 0.170859 0.058937
vt 0.209654 0.047168
vt 0.250000 0.043195
vt 0.290346 0.047168
vt 0.329141 0.058937
vt 0.364895 0.078047
vt 0.396234 0.103766
vt 0.421952 0.135105
vt 0.441063 0.170859
vt 0.452832 0.209654
vt 0.456805 0.250000
vt 0.452832 0.290346
vt 0.441063 0.329141
vt 0.421953 0.364895
vt 0.396233 0.396234
vt 0.364895 0.421952
vt 0.329141 0.441063
vt 0.750000 0.456805
vt 0.790346 0.452832
vt 0.829141 0.441063
vt 0.864895 0.421952
vt 0.896234 0.396234
vt 0.921953 0.364895
vt 0.941064 0.329141
vt 0.952832 0.290346
vt 0.956805 0.250000
vt 0.952832 0.209654
vt 0.941063 0.170859
vt 0.921953 0.135105
vt 0.896234 0.103766
vt 0.864895 0.078047
vt 0.829141 0.058937
vt 0.790346 0.047168
vt 0.670859 0.058937
vt 0.635105 0.078048
vt 0.603766 0.103766
vt 0.578047 0.135105
vt 0.558936 0.170859
vt 0.547168 0.209655
vt 0.543194 0.250000
vt 0.547168 0.290346
vt 0.558937 0.329141
vt 0.578048 0.364895
vt 0.603767 0.396234
vt 0.635105 0.421953
vt 0.670859 0.441063
vt 0.709655 0.452832
vn -0.0000 -0.0980 -0.9952
vn -0.0000 -0.2903 -0.9569
vn -0.0000 -0.4714 -0.8819
vn 0.0000 -0.6344 -0.7730
vn 0.0000 -0.7730 -0.6344
vn 0.0000 -0.8819 -0.4714
vn 0.0000 -0.9569 -0.2903
vn 0.0000 -0.9952 -0.0980
vn 0.0000 -0.9952 0.0980
vn 0.0000 -0.9569 0.2903
vn 0.0000 -0.8819 0.4714
vn 0.0000 -0.7730 0.6344
vn 0.0000 -0.6344 0.7730
vn -0.0000 -0.4714 0.8819
vn 0.0000 -0.2903 0.9569
vn 0.0000 -0.0980 0.9952
vn 0.0000 0.0980 0.9952
vn 0.0000 0.2903 0.9569
vn 0.0000 0.4714 0.8819
vn 0.0000 0.6344 0.7730
vn 0.0000 0.7730 0.6344
vn 0.0000 0.8819 0.4714
vn 0.0000 0.9569 0.2903
vn 0.0000 0.9952 0.0980
vn 0.0000 0.9952 -0.0980
vn 0.0000 0.9569 -0.2903
vn 0.0000 0.8819 -0.4714
vn 0.0000 0.7730 -0.6344
vn 0.0000 0.6344 -0.7730
vn -0.0000 0.4714 -0.8819
vn -0.0000 0.2903 -0.9569
vn 0.0000 0.0980 -0.9952
vn -1.0000 0.0000 0.0000
vn 1.0000 0.0000 0.0000
usemtl None
s off
f 65/1/1 68/2/1 67/3/1 66/4/1
f 66/4/2 67/3/2 70/5/2 69/6/2
f 69/6/3 70/5/3 72/7/3 71/8/3
f 71/8/4 72/7/4 74/9/4 73/10/4
f 73/10/5 74/9/5 76/11/5 75/12/5
f 75/12/6 76/11/6 78/13/6 77/14/6
f 77/14/7 78/13/7 80/15/7 79/16/7
f 79/16/8 80/15/8 82/17/8 81/18/8
f 81/18/9 82/17/9 84/19/9 83/20/9
f 83/20/10 84/19/10 86/21/10 85/22/10
f 85/22/11 86/21/11 88/23/11 87/24/11
f 87/24/12 88/23/12 90/25/12 89/26/12
f 89/26/13 90/25/13 92/27/13 91/28/13
f 91/28/14 92/27/14 94/29/14 93/30/14
f 93/30/15 94/29/15 96/31/15 95/32/15
f 95/32/16 96/31/16 98/33/16 97/34/16
f 97/34/17 98/33/17 100/35/17 99/36/17
f 99/36/18 100/35/18 102/37/18 101/38/18
f 101/38/19 102/37/19 104/39/19 103/40/19
f 103/40/20 104/39/20 106/41/20 105/42/20
f 105/42/21 106/41/21 108/43/21 107/44/21
f 107/44/22 108/43/22 110/45/22 109/46/22
f 109/46/23 110/45/23 112/47/23 111/48/23
f 111/48/24 112/47/24 114/49/24 113/50/24
f 113/50/25 114/49/25 116/51/25 115/52/25
f 115/52/26 116/51/26 118/53/26 117/54/26
f 117/54/27 118/53/27 120/55/27 119/56/27
f 119/56/28 120/55/28 122/57/28 121/58/28
f 121/58/29 122/57/29 124/59/29 123/60/29
f 123/60/30 124/59/30 126/61/30 125/62/30
f 48/63/7 46/64/7 151/65/7 152/66/7
f 125/62/31 126/61/31 128/67/31 127/68/31
f 127/68/32 128/67/32 68/69/32 65/70/32
f 33/71/1 35/72/1 178/73/1 177/74/1
f 3/75/33 1/76/33 65/77/33 66/78/33
f 2/79/34 4/80/34 67/81/34 68/82/34
f 5/83/33 3/75/33 66/78/33 69/84/33
f 4/80/34 6/85/34 70/86/34 67/81/34
f 7/87/33 5/83/33 69/84/33 71/88/33
f 6/85/34 8/89/34 72/90/34 70/86/34
f 9/91/33 7/87/33 71/88/33 73/92/33
f 8/89/34 10/93/34 74/94/34 72/90/34
f 11/95/33 9/91/33 73/92/33 75/96/33
f 10/93/34 12/97/34 76/98/34 74/94/34
f 13/99/33 11/95/33 75/96/33 77/100/33
f 12/97/34 14/101/34 78/102/34 76/98/34
f 15/103/33 13/99/33 77/100/33 79/104/33
f 14/101/34 16/105/34 80/106/34 78/102/34
f 17/107/33 15/103/33 79/104/33 81/108/33
f 16/105/34 18/109/34 82/110/34 80/106/34
f 19/111/33 17/107/33 81/108/33 83/112/33
f 18/109/34 20/113/34 84/114/34 82/110/34
f 21/115/33 19/111/33 83/112/33 85/116/33
f 20/113/34 22/117/34 86/118/34 84/114/34
f 23/119/33 21/115/33 85/116/33 87/120/33
f 22/117/34 24/121/34 88/122/34 86/118/34
f 25/123/33 23/119/33 87/120/33 89/124/33
f 24/121/34 26/125/34 90/126/34 88/122/34
f 27/127/33 25/123/33 89/124/33 91/128/33
f 26/125/34 28/129/34 92/130/34 90/126/34
f 29/131/33 27/127/33 91/128/33 93/132/33
f 28/129/34 30/133/34 94/134/34 92/130/34
f 31/135/33 29/131/33 93/132/33 95/136/33
f 30/133/34 32/137/34 96/138/34 94/134/34
f 33/71/33 31/135/33 95/136/33 97/139/33
f 32/137/34 34/140/34 98/141/34 96/138/34
f 35/72/33 33/71/33 97/139/33 99/142/33
f 34/140/34 36/143/34 100/144/34 98/141/34
f 37/145/33 35/72/33 99/142/33 101/146/33
f 36/143/34 38/147/34 102/148/34 100/144/34
f 39/149/33 37/145/33 101/146/33 103/150/33
f 38/147/34 40/151/34 104/152/34 102/148/34
f 41/153/33 39/149/33 103/150/33 105/154/33
f 40/151/34 42/155/34 106/156/34 104/152/34
f 43/157/33 41/153/33 105/154/33 107/158/33
f 42/155/34 44/159/34 108/160/34 106/156/34
f 45/161/33 43/157/33 107/158/33 109/162/33
f 44/159/34 46/64/34 110/163/34 108/160/34
f 47/164/33 45/161/33 109/162/33 111/165/33
f 46/64/34 48/63/34 112/166/34 110/163/34
f 49/167/33 47/164/33 111/165/33 113/168/33
f 48/63/34 50/169/34 114/170/34 112/166/34
f 51/171/33 49/167/33 113/168/33 115/172/33
f 50/169/34 52/173/34 116/174/34 114/170/34
f 53/175/33 51/171/33 115/172/33 117/176/33
f 52/173/34 54/177/34 118/178/34 116/174/34
f 55/179/33 53/175/33 117/176/33 119/180/33
f 54/177/34 56/181/34 120/182/34 118/178/34
f 57/183/33 55/179/33 119/180/33 121/184/33
f 56/181/34 58/185/34 122/186/34 120/182/34
f 59/187/33 57/183/33 121/184/33 123/188/33
f 58/185/34 60/189/34 124/190/34 122/186/34
f 61/191/33 59/187/33 123/188/33 125/192/33
f 60/189/34 62/193/34 126/194/34 124/190/34
f 63/195/33 61/191/33 125/192/33 127/196/33
f 62/193/34 64/197/34 128/198/34 126/194/34
f 1/76/33 63/195/33 127/196/33 65/77/33
f 64/197/34 2/79/34 68/82/34 128/198/34
f 129/199/34 130/200/34 160/201/34 159/202/34 158/203/34 157/204/34 156/205/34 155/206/34 154/207/34 153/208/34 152/66/34 151/65/34 150/209/34 149/210/34 148/211/34 147/212/34 146/213/34 145/214/34 144/215/34 143/216/34 142/217/34 141/218/34 140/219/34 139/220/34 138/221/34 137/222/34 136/223/34 135/224/34 134/225/34 133/226/34 132/227/34 131/228/34
f 8/89/19 6/85/19 131/228/19 132/227/19
f 62/193/14 60/189/14 158/203/14 159/202/14
f 22/117/26 20/113/26 138/221/26 139/220/26
f 36/143/1 34/140/1 145/214/1 146/213/1
f 50/169/8 48/63/8 152/66/8 153/208/8
f 10/93/20 8/89/20 132/227/20 133/226/20
f 64/197/15 62/193/15 159/202/15 160/201/15
f 24/121/27 22/117/27 139/220/27 140/219/27
f 38/147/2 36/143/2 146/213/2 147/212/2
f 52/173/9 50/169/9 153/208/9 154/207/9
f 12/97/21 10/93/21 133/226/21 134/225/21
f 2/79/16 64/197/16 160/201/16 130/200/16
f 26/125/28 24/121/28 140/219/28 141/218/28
f 40/151/3 38/147/3 147/212/3 148/211/3
f 54/177/10 52/173/10 154/207/10 155/206/10
f 14/101/22 12/97/22 134/225/22 135/224/22
f 28/129/29 26/125/29 141/218/29 142/217/29
f 42/155/4 40/151/4 148/211/4 149/210/4
f 56/181/11 54/177/11 155/206/11 156/205/11
f 16/105/23 14/101/23 135/224/23 136/223/23
f 30/133/30 28/129/30 142/217/30 143/216/30
f 44/159/5 42/155/5 149/210/5 150/209/5
f 4/80/17 2/79/17 130/200/17 129/199/17
f 58/185/12 56/181/12 156/205/12 157/204/12
f 18/109/24 16/105/24 136/223/24 137/222/24
f 32/137/31 30/133/31 143/216/31 144/215/31
f 46/64/6 44/159/6 150/209/6 151/65/6
f 6/85/18 4/80/18 129/199/18 131/228/18
f 60/189/13 58/185/13 157/204/13 158/203/13
f 20/113/25 18/109/25 137/222/25 138/221/25
f 34/140/32 32/137/32 144/215/32 145/214/32
f 161/229/33 162/230/33 163/231/33 164/232/33 165/233/33 166/234/33 167/235/33 168/236/33 169/237/33 170/238/33 171/239/33 172/240/33 173/241/33 174/242/33 175/243/33 176/244/33 177/74/33 178/73/33 179/245/33 180/246/33 181/247/33 182/248/33 183/249/33 184/250/33 185/251/33 186/252/33 187/253/33 188/254/33 189/255/33 190/256/33 191/257/33 192/258/33
f 47/164/8 49/167/8 185/251/8 184/250/8
f 7/87/20 9/91/20 165/233/20 164/232/20
f 61/191/15 63/195/15 192/258/15 191/257/15
f 21/115/27 23/119/27 172/240/27 171/239/27
f 35/72/2 37/145/2 179/245/2 178/73/2
f 49/167/9 51/171/9 186/252/9 185/251/9
f 9/91/21 11/95/21 166/234/21 165/233/21
f 63/195/16 1/76/16 161/229/16 192/258/16
f 23/119/28 25/123/28 173/241/28 172/240/28
f 37/145/3 39/149/3 180/246/3 179/245/3
f 51/171/10 53/175/10 187/253/10 186/252/10
f 11/95/22 13/99/22 167/235/22 166/234/22
f 25/123/29 27/127/29 174/242/29 173/241/29
f 39/149/4 41/153/4 181/247/4 180/246/4
f 53/175/11 55/179/11 188/254/11 187/253/11
f 13/99/23 15/103/23 168/236/23 167/235/23
f 27/127/30 29/131/30 175/243/30 174/242/30
f 41/153/5 43/157/5 182/248/5 181/247/5
f 1/76/17 3/75/17 162/230/17 161/229/17
f 55/179/12 57/183/12 189/255/12 188/254/12
f 15/103/24 17/107/24 169/237/24 168/236/24
f 29/131/31 31/135/31 176/244/31 175/243/31
f 43/157/6 45/161/6 183/249/6 182/248/6
f 3/75/18 5/83/18 163/231/18 162/230/18
f 57/183/13 59/187/13 190/256/13 189/255/13
f 17/107/25 19/111/25 170/238/25 169/237/25
f 31/135/32 33/71/32 177/74/32 176/244/32
f 45/161/7 47/164/7 184/250/7 183/249/7
f 5/83/19 7/87/19 164/232/19 163/231/19
f 59/187/14 61/191/14 191/257/14 190/256/14
f 19/111/26 21/115/26 171/239/26 170/238/26
